<svg xmlns="http://www.w3.org/2000/svg" width="1200" height="630" viewBox="0 0 1200 630">
  <defs>
    <radialGradient id="bgA" cx="82%" cy="22%" r="46%">
      <stop offset="0%" stop-color="#587dff" stop-opacity="0.28"/>
      <stop offset="100%" stop-color="#587dff" stop-opacity="0"/>
    </radialGradient>
    <radialGradient id="bgB" cx="20%" cy="85%" r="38%">
      <stop offset="0%" stop-color="#3d5eff" stop-opacity="0.18"/>
      <stop offset="100%" stop-color="#3d5eff" stop-opacity="0"/>
    </radialGradient>
    <linearGradient id="line" x1="0%" x2="0%" y1="0%" y2="100%">
      <stop offset="0%" stop-color="#131a2b" />
      <stop offset="100%" stop-color="#050811" />
    </linearGradient>
  </defs>
  <rect width="1200" height="630" fill="#04060d"/>
  <rect width="1200" height="630" fill="url(#bgA)"/>
  <rect width="1200" height="630" fill="url(#bgB)"/>
  <g opacity="0.7">
    <circle cx="112" cy="84" r="1.7" fill="#ffffff"/>
    <circle cx="182" cy="132" r="1.1" fill="#ffffff"/>
    <circle cx="310" cy="74" r="1.9" fill="#ffffff"/>
    <circle cx="982" cy="88" r="1.5" fill="#ffffff"/>
    <circle cx="1028" cy="140" r="1.2" fill="#ffffff"/>
    <circle cx="1118" cy="112" r="1.8" fill="#ffffff"/>
    <circle cx="1080" cy="538" r="1.8" fill="#ffffff"/>
    <circle cx="184" cy="552" r="1.4" fill="#ffffff"/>
    <circle cx="286" cy="496" r="1.2" fill="#ffffff"/>
    <circle cx="76" cy="446" r="1.7" fill="#ffffff"/>
  </g>
  <circle cx="1010" cy="116" r="260" fill="none" stroke="rgba(255,255,255,0.12)" stroke-width="1"/>
  <circle cx="124" cy="568" r="164" fill="none" stroke="rgba(255,255,255,0.08)" stroke-width="1"/>
  <rect x="88" y="104" width="1024" height="422" rx="28" fill="url(#line)" fill-opacity="0.72" stroke="rgba(255,255,255,0.12)"/>
  <text x="148" y="182" fill="rgba(224,231,255,0.88)" font-family="Inter, SF Pro Display, system-ui, sans-serif" font-size="22" letter-spacing="6">A SNAPWORKSLAB PROJECT</text>
  <text x="148" y="320" fill="#f7f9ff" font-family="Inter, SF Pro Display, system-ui, sans-serif" font-size="90" font-weight="700" letter-spacing="-4">Dust to Cosmos</text>
  <text x="148" y="388" fill="rgba(220,226,241,0.92)" font-family="Inter, SF Pro Display, system-ui, sans-serif" font-size="30">From where you stand to the edge of the observable universe.</text>
  <text x="148" y="452" fill="rgba(188,196,215,0.82)" font-family="Inter, SF Pro Text, system-ui, sans-serif" font-size="24">A forthcoming iPhone and iPad experience built to make cosmic scale feel real.</text>
</svg>